<svg version="1.1" id="Layer_1" xmlns="http://www.w3.org/2000/svg" xmlns:xlink="http://www.w3.org/1999/xlink" x="0px" y="0px"
	 width="100%" viewBox="0 0 640 528" enable-background="new 0 0 640 528" xml:space="preserve">
<path fill="#000000" opacity="1.000000" stroke="none" 
	d="
M441.039856,183.959595 
	C443.781830,185.409866 445.835999,187.456100 447.026917,190.394211 
	C449.720947,197.040619 455.539886,201.425354 459.360657,207.260101 
	C460.958344,209.700012 463.878754,212.613953 460.898468,215.120590 
	C458.200562,217.389679 455.266144,214.713425 453.097870,212.675079 
	C450.188965,209.940460 447.447296,207.016312 444.776947,204.044891 
	C443.598053,202.733063 442.476929,201.191986 443.318573,198.821930 
	C447.800781,200.427155 449.608337,205.078949 453.771851,206.888626 
	C449.204803,201.660065 444.637726,196.431488 439.701874,190.780685 
	C437.320190,194.861694 437.418823,197.509674 440.060364,200.781418 
	C447.768494,210.328445 456.801788,218.249420 466.653809,225.525970 
	C476.838806,233.048492 484.179596,243.242401 490.165527,254.361649 
	C490.930725,255.783051 491.873291,257.306183 490.635895,259.023865 
	C488.365387,259.985352 487.264771,258.171417 486.029266,256.977509 
	C476.686340,247.949081 467.359680,238.903259 458.098999,229.790695 
	C455.473938,227.207672 452.937653,224.756439 449.238953,223.568390 
	C445.425293,222.343414 443.211334,218.914078 440.913910,215.879303 
	C426.848450,197.299805 411.384644,179.775879 398.997803,159.921463 
	C395.811584,154.814362 391.751343,150.252548 387.707520,145.729355 
	C390.395813,152.467545 390.723206,159.469986 390.509979,166.298584 
	C390.282532,173.581635 389.135254,180.895248 387.734650,188.067657 
	C385.899170,197.467102 381.102722,205.508820 374.229492,212.112762 
	C364.232758,221.717758 356.774750,233.045731 350.564362,245.317978 
	C347.524872,251.324280 343.994995,256.947418 337.570892,260.003571 
	C336.349823,260.584503 335.069489,261.365814 335.971680,263.053925 
	C336.810608,264.623627 338.184967,265.090179 339.761871,264.201447 
	C341.208160,263.386292 342.672394,262.526978 343.918610,261.445068 
	C352.805237,253.730286 362.260101,246.648315 366.172424,234.591812 
	C369.308136,224.928619 377.200012,218.971695 385.235077,213.422134 
	C387.340637,211.967880 389.563538,212.138718 391.073761,214.072784 
	C400.498535,226.142731 409.806946,238.303650 419.116455,250.463089 
	C419.347443,250.764786 419.145538,251.397903 419.145538,252.131546 
	C416.720886,252.898209 415.463104,251.076477 414.155823,249.796494 
	C406.182190,241.989349 398.162292,234.222870 390.416809,226.193039 
	C387.885101,223.568405 386.093018,223.754257 383.851562,226.135956 
	C381.656281,228.468613 379.957550,231.097763 378.671844,234.030624 
	C374.728394,243.026138 371.084900,252.177078 365.312408,260.243713 
	C364.948517,260.752197 364.518951,261.337830 365.174072,262.266418 
	C370.431091,260.833740 370.896271,254.045288 375.910126,251.917511 
	C378.023743,254.783447 376.910278,257.351837 375.939728,259.695496 
	C374.024231,264.320892 371.278625,268.811981 376.309784,273.874451 
	C380.601379,269.843201 379.956207,262.657776 385.457764,257.485840 
	C386.929749,268.637634 392.143158,277.040192 397.039185,285.653870 
	C394.996826,271.860260 387.579865,258.924774 390.456177,244.242935 
	C394.177216,244.659439 394.178101,247.062408 394.817749,248.785461 
	C396.901093,254.397736 398.091736,260.343781 400.991882,265.648621 
	C402.544159,268.487946 402.837372,272.469086 407.680786,272.435669 
	C408.696350,272.428680 409.801453,274.791229 410.739929,276.148560 
	C414.001099,280.865173 416.631622,286.046875 421.206238,289.855743 
	C418.655182,282.985260 413.930817,277.283386 410.827271,270.574402 
	C418.239380,273.215820 421.045013,280.790436 426.791168,285.108032 
	C432.224243,281.707397 432.351776,281.657684 434.779022,287.884674 
	C436.020905,291.070679 439.029846,293.715881 437.439301,297.964081 
	C437.021637,299.079620 439.399414,301.207489 442.203278,302.607147 
	C442.249146,293.911041 447.688782,287.984039 451.757507,280.889221 
	C453.528717,288.092834 459.700317,293.053253 459.368286,300.858276 
	C459.246857,303.713226 462.261047,305.799072 463.982941,308.590759 
	C466.908386,305.678925 468.134979,302.218536 469.836578,299.075562 
	C471.633087,295.757294 473.602051,295.752411 475.038788,299.082642 
	C476.869324,303.325500 479.388763,307.363739 479.668060,312.176971 
	C479.848999,315.295532 482.432495,316.634125 484.549225,318.051300 
	C488.163910,320.471283 488.636169,323.230133 486.786560,327.008362 
	C483.637451,333.440857 480.727325,339.986542 477.032837,346.144135 
	C475.201813,349.195892 473.074524,350.538910 469.230804,349.489746 
	C444.951508,342.862305 420.196075,340.363708 395.058746,341.338928 
	C364.562927,342.522095 334.295990,345.312286 304.604736,352.901123 
	C291.873260,356.155212 278.609802,356.993317 266.021057,361.051086 
	C264.519745,361.535034 262.495331,361.630402 261.105774,361.016998 
	C254.432343,358.071136 248.036957,359.958435 241.584641,361.647308 
	C232.569458,364.007019 223.520920,366.248535 214.554794,368.781860 
	C211.004105,369.785095 208.440002,369.022247 206.229950,366.162445 
	C194.581253,351.089111 183.705139,335.570618 177.333389,317.368744 
	C174.017334,307.895935 174.514587,305.223877 183.206909,300.200623 
	C196.677963,292.415771 207.047134,281.722870 215.482483,268.826111 
	C221.034439,260.337708 229.253159,254.157532 234.733429,246.186569 
	C238.006180,246.922882 236.298843,249.445709 237.555222,250.461517 
	C246.292221,249.222672 250.627365,239.552811 249.479263,222.977493 
	C260.129089,230.205109 269.825714,237.441681 276.381592,248.221649 
	C268.431580,245.402435 265.141785,236.944153 257.839630,232.456268 
	C257.274384,238.610107 256.501129,244.333588 256.301819,250.076965 
	C256.150757,254.431458 254.729050,257.783203 251.178238,260.321167 
	C243.984787,265.462738 238.623550,272.142365 234.589279,279.995209 
	C230.742416,287.483246 225.487259,293.746796 218.910187,299.174286 
	C208.008423,308.170563 200.882385,320.486389 192.099121,331.347137 
	C191.162216,332.505646 190.946457,334.068512 191.207092,336.380096 
	C195.682755,331.575012 199.721817,327.072693 203.937759,322.742584 
	C218.284973,308.006805 230.867310,291.929993 241.480545,274.291412 
	C243.435623,271.042206 246.036087,268.132385 248.626251,265.331940 
	C250.274429,263.549988 252.383316,262.048615 254.996765,262.819305 
	C256.173431,264.441772 255.333206,265.653870 254.784760,266.800446 
	C246.922974,283.236298 238.028595,299.012054 225.417343,312.390350 
	C223.501724,314.422455 221.852814,316.592529 221.827042,319.807129 
	C233.433502,308.232452 243.577271,294.987305 259.867126,288.729279 
	C254.520752,297.652405 256.317871,307.895721 253.381927,317.180359 
	C258.525696,310.568085 257.929016,301.718933 262.489410,293.658234 
	C266.725159,302.107666 264.977905,311.005219 269.403198,319.335938 
	C271.921936,307.592743 264.105255,298.312775 265.531464,287.710846 
	C271.112122,298.646088 276.182465,309.654205 282.479767,321.752289 
	C281.458862,315.088135 277.746643,310.409210 278.508575,303.551575 
	C285.184967,309.055756 287.494385,316.613220 293.063721,321.483093 
	C298.645294,326.363678 303.899872,331.618225 309.463593,336.865295 
	C312.813477,332.879639 312.691284,329.614319 309.312592,326.775574 
	C304.854401,323.029755 300.136566,319.593231 295.671753,315.854828 
	C293.306091,313.873993 290.627350,311.978485 290.150391,308.518005 
	C290.539185,308.295776 290.988037,307.947357 291.058533,308.011932 
	C298.896057,315.191650 309.642151,318.465057 316.510773,326.945007 
	C316.919769,327.449951 317.647186,328.283417 317.975952,328.178589 
	C322.632782,326.693359 323.768127,330.691376 325.670471,333.246918 
	C330.780609,330.744263 331.904877,329.188263 332.992584,323.040680 
	C338.165192,323.792542 337.933563,329.177307 341.054871,332.259399 
	C342.444702,329.862885 343.770477,327.576874 345.120178,325.249634 
	C337.188141,317.861450 326.523102,314.251678 320.106506,305.207428 
	C332.535339,309.918823 342.626556,318.734711 354.579407,325.047119 
	C355.325226,321.818176 353.310455,321.112793 351.984344,320.135071 
	C345.280731,315.192566 338.708038,310.037811 331.731140,305.509491 
	C323.366547,300.080597 318.185791,292.352051 314.443420,283.478363 
	C312.369171,278.560150 309.043274,275.043762 305.019012,271.553192 
	C293.840149,261.856964 283.156219,251.582291 274.302216,239.604431 
	C269.550842,233.176651 264.942566,226.657883 258.462372,221.720078 
	C254.683670,218.840744 252.597748,214.529037 250.102798,210.590469 
	C249.158493,209.099792 248.832138,207.123627 246.662933,206.109131 
	C244.167099,214.232040 241.594879,222.228958 239.263123,230.295395 
	C236.821167,238.742981 232.182098,245.356262 225.225266,250.935684 
	C216.917221,257.598785 212.099976,267.207581 206.964630,276.341980 
	C204.541824,280.651550 201.871857,284.234497 197.447678,286.843079 
	C191.295822,290.470337 185.587448,294.859863 179.756485,299.017395 
	C176.330322,301.460236 174.622177,300.329742 174.009399,296.538605 
	C173.031113,290.486267 172.035507,284.435913 171.145981,278.370209 
	C170.398849,273.275513 171.930954,269.545441 176.774994,266.777740 
	C185.519257,261.781586 193.075424,255.170822 199.159805,247.109558 
	C202.542923,242.627228 206.459396,239.563156 212.154678,238.732941 
	C215.073456,238.307449 217.741943,236.903732 220.259033,234.349808 
	C214.394592,230.016968 208.366638,226.858826 202.393951,223.643112 
	C199.591873,222.134460 197.697189,224.078339 195.969650,226.000748 
	C191.267685,231.233093 185.754089,235.533417 180.150940,239.723465 
	C178.968842,240.607452 177.615585,241.713867 176.071686,240.776413 
	C174.395706,239.758789 175.159424,238.112457 175.557556,236.712509 
	C181.580688,215.533264 190.416946,195.348099 203.332031,177.756836 
	C217.589691,158.336868 236.283920,143.074326 257.891632,131.940536 
	C296.811829,111.886177 337.962830,107.406731 379.655914,119.491020 
	C421.520477,131.625031 454.334900,156.959015 475.785065,195.730103 
	C480.461060,204.181961 485.400513,212.502808 488.720154,221.628265 
	C489.432739,223.587128 490.448608,225.574646 489.366028,227.959061 
	C488.486115,227.847855 487.662415,227.999237 487.265167,227.656403 
	C474.839447,216.933624 460.102600,208.707474 451.098267,194.281342 
	C449.686768,192.019882 448.261017,189.766953 446.877625,187.488373 
	C445.691467,185.534683 444.203583,184.076889 441.042603,183.892670 
	C435.408905,182.593964 432.028748,185.458527 428.513947,187.986984 
	C432.764679,186.830322 436.449493,184.096237 441.039856,183.959595 
M308.461731,191.417450 
	C305.013977,195.940094 300.060272,196.905807 294.989410,196.197830 
	C284.745758,194.767609 279.105621,201.252411 273.425171,208.007034 
	C280.406952,200.354507 289.327362,197.360870 299.335632,196.956207 
	C301.146179,196.882980 303.252686,196.389648 304.277161,198.363144 
	C305.344482,200.419281 303.604828,201.825256 302.345917,203.048126 
	C298.285797,206.992065 294.177002,210.893082 289.935883,214.639618 
	C288.458923,215.944366 286.856201,217.871201 283.933044,216.163666 
	C286.107849,211.431671 291.030701,208.857559 293.267944,204.100952 
	C290.647644,203.685181 288.418243,204.017487 286.671387,205.257523 
	C281.522583,208.912537 276.411377,212.647186 271.550537,216.670898 
	C268.781830,218.962814 271.647797,220.776825 272.842896,222.551971 
	C274.191315,224.554825 275.591766,226.446014 278.432922,224.339096 
	C279.770172,223.347397 281.384125,221.348419 283.164062,223.300644 
	C284.674561,224.957397 282.124573,226.149765 281.901611,227.977341 
	C282.950867,228.238785 284.307953,227.404236 285.452850,229.127670 
	C286.287933,230.261307 283.386292,231.394684 284.676117,233.498199 
	C291.408966,227.454269 298.212524,221.720245 306.846588,217.205826 
	C306.718140,221.052917 308.725739,222.663895 311.230377,223.925461 
	C318.578461,220.202179 323.121918,212.846878 330.183746,208.169586 
	C332.460815,216.370590 331.443817,219.420502 325.536407,222.941010 
	C320.247101,226.093201 314.726440,228.873856 309.555420,232.203033 
	C304.798218,235.265747 299.796082,237.112381 294.159973,237.431702 
	C291.905670,237.559433 289.563049,237.731873 287.866913,239.492508 
	C288.281738,241.193451 289.600647,241.271103 290.669586,241.467499 
	C293.803040,242.043198 297.056183,242.426468 300.064331,241.271667 
	C316.057861,235.131989 331.407379,228.326508 340.125183,211.912842 
	C345.894257,201.051056 352.670959,190.713486 359.211151,180.275681 
	C364.384827,172.018723 364.581573,172.069931 358.791321,164.517349 
	C355.103455,159.707077 351.643341,154.678253 347.042419,150.205215 
	C340.655334,158.835159 336.572174,168.223022 330.014435,176.047134 
	C323.629303,183.665222 317.302277,191.187836 308.676392,196.689606 
	C307.343079,193.991165 308.867676,192.599136 309.572662,190.683319 
	C313.524811,187.742447 315.149078,183.153931 317.937256,179.385284 
	C314.715179,183.090576 311.039093,186.452713 308.461731,191.417450 
M253.027954,174.973251 
	C255.277145,175.115189 257.368744,175.554688 258.292847,177.986496 
	C258.876770,179.523178 260.148499,179.744385 261.533264,179.757141 
	C270.886017,179.843246 280.241669,179.486282 289.828156,180.440857 
	C288.424530,177.083908 286.054565,176.321167 283.238007,176.038483 
	C281.579956,175.872086 279.678375,175.226639 279.707733,173.180389 
	C279.741730,170.810059 281.917053,171.029205 283.488922,171.001633 
	C288.593140,170.912033 293.699890,170.968109 298.805695,170.968109 
	C286.406372,168.968460 274.002350,167.902161 261.395233,168.300827 
	C261.791107,170.888397 265.109375,171.019150 264.220184,174.360550 
	C250.697800,172.105164 236.991379,173.446655 223.282791,173.387772 
	C232.869293,174.657379 242.488007,174.982666 253.027954,174.973251 
M203.332443,260.838318 
	C200.701965,265.167053 197.065002,268.893982 194.540314,274.946777 
	C203.306030,266.557800 209.591064,257.937408 216.574463,249.890549 
	C210.976410,251.766418 207.303024,255.940125 203.332443,260.838318 
M359.746765,155.760605 
	C363.706573,160.272110 367.666382,164.783615 371.626190,169.295120 
	C372.055389,168.906219 372.484589,168.517303 372.913788,168.128387 
	C362.926636,157.838928 354.160034,146.498718 344.171967,136.210037 
	C349.198517,142.557449 354.225067,148.904861 359.746765,155.760605 
M337.695557,149.198441 
	C339.077881,146.090820 340.460205,142.983185 341.842499,139.875565 
	C341.610168,139.776672 341.377838,139.677765 341.145477,139.578857 
	C335.623047,149.232117 330.100647,158.885361 324.578217,168.538620 
	C329.772827,162.897919 333.938538,156.624130 337.695557,149.198441 
M230.622131,220.040497 
	C229.623764,221.739151 228.625397,223.437805 227.627029,225.136459 
	C227.869324,225.258820 228.111618,225.381195 228.353912,225.503571 
	C230.399323,222.220490 232.444733,218.937408 234.919876,214.964569 
	C232.178513,216.088150 232.044327,218.129028 230.622131,220.040497 
z"/>
<path fill="#000000" opacity="1.000000" stroke="none" 
	d="
M231.040939,387.972626 
	C243.859772,385.037506 256.599640,381.569519 269.925232,381.942322 
	C271.977722,381.999756 274.324554,381.415131 276.332825,384.669586 
	C266.987030,388.497772 256.427856,385.474060 246.480545,390.748657 
	C256.795105,390.750824 266.230774,384.073639 274.997528,392.466248 
	C274.188934,396.685303 269.334686,396.053284 266.841888,398.501282 
	C268.870209,399.382385 271.721954,398.089966 272.985535,401.211700 
	C270.648987,405.211182 265.361298,403.410797 262.257111,406.310608 
	C264.924652,409.158997 268.246460,409.184448 271.504822,408.466980 
	C295.259003,403.236359 319.324402,402.282471 343.542145,402.648529 
	C356.329376,402.841797 368.628510,405.713531 381.028687,408.186859 
	C382.493134,408.478973 383.913422,409.045563 385.787842,408.551208 
	C386.479553,406.283508 386.907471,403.593994 389.523163,402.014313 
	C388.799561,400.641541 388.159180,399.503479 387.590424,398.330719 
	C386.597504,396.283386 385.950867,393.561859 387.321716,392.123383 
	C390.216187,389.086182 392.515259,385.940704 393.627563,381.869354 
	C393.879669,380.946594 395.113464,380.561646 396.196045,380.805847 
	C396.839050,380.950836 397.596893,381.623505 398.045288,381.437531 
	C404.018524,378.959381 408.745056,378.993408 409.886688,386.906128 
	C414.721954,386.551117 414.544708,393.899750 419.941742,393.487946 
	C417.588867,389.087189 414.720795,384.882172 418.543091,380.448669 
	C420.771149,377.864319 423.630890,378.595581 426.398895,380.517212 
	C427.198914,377.884430 427.946106,375.425476 428.793060,372.638306 
	C415.978455,371.374023 403.193024,373.532928 390.785675,369.782501 
	C406.058197,365.304321 421.523132,367.668854 436.945007,368.479095 
	C415.906860,364.239746 394.433167,367.590118 373.212769,364.673218 
	C379.834290,361.872589 386.858826,362.684662 393.650818,362.156738 
	C400.593079,361.617126 407.609924,362.037262 414.597626,361.062622 
	C398.321716,361.062622 382.045837,361.062622 365.486603,361.062622 
	C366.023163,357.967773 368.043427,358.062531 369.735107,357.878021 
	C399.716278,354.608215 429.579468,354.848785 459.219299,361.070923 
	C460.927826,361.429535 462.962708,361.451904 463.995850,363.766632 
	C459.841187,369.599182 455.199799,374.183258 446.876099,369.854584 
	C449.293365,371.720001 452.419952,370.887512 454.852936,374.202667 
	C449.180817,376.628296 444.122162,373.034821 438.995178,373.974182 
	C438.917786,376.595184 439.398407,378.363770 442.801453,377.912323 
	C445.081604,377.609863 447.182648,378.620361 448.206696,380.770447 
	C449.269409,383.001678 447.537323,384.638611 446.224304,386.022461 
	C443.186462,389.224213 440.324188,392.371155 435.737579,394.015289 
	C432.268311,395.258942 428.939270,398.120361 426.160828,400.633087 
	C412.016815,413.424500 395.096100,420.366486 377.109680,425.221802 
	C364.204071,428.705597 350.925323,430.438446 337.629578,430.646606 
	C330.194733,430.763062 322.670593,430.684448 315.101410,427.952698 
	C309.136017,425.799805 302.121124,426.050507 295.624176,424.466400 
	C276.801392,419.876984 259.394379,412.110382 243.059357,401.879242 
	C239.024445,399.352081 235.534180,395.951141 231.816925,392.923157 
	C230.436661,391.798859 229.458344,390.498871 230.807571,388.318542 
	C231.001511,388.003723 231.040939,387.972626 231.040939,387.972626 
z"/>
<path fill="#000000" opacity="1.000000" stroke="none" 
	d="
M393.908600,97.875374 
	C388.843689,102.750809 383.377777,102.582901 377.411469,100.872398 
	C373.918518,99.870987 371.936981,98.509003 373.281464,94.654549 
	C374.634552,90.775497 372.902283,89.091484 369.211975,88.588669 
	C365.916992,88.139732 362.638672,87.568878 359.352386,87.055809 
	C356.307922,86.580482 354.886292,85.451126 355.213287,81.747948 
	C355.694550,76.297256 357.670898,71.967949 361.315308,67.989700 
	C368.721222,59.905441 374.984741,50.815083 383.169342,43.395966 
	C386.745544,40.154228 390.536743,39.079262 395.079193,40.755547 
	C395.544189,40.927132 396.043610,41.035194 396.536560,41.096840 
	C407.409393,42.456425 406.405518,42.835690 404.384705,54.324177 
	C403.608002,58.739838 402.397797,63.077713 401.470825,67.469124 
	C401.020752,69.601158 400.992004,71.609009 402.342621,73.664040 
	C404.538483,77.005173 404.154236,85.226791 401.075562,87.545418 
	C397.471619,90.259628 396.279846,94.145477 393.908600,97.875374 
M368.364288,77.122345 
	C372.207367,78.851555 376.321960,79.404655 380.436096,80.060616 
	C383.377258,80.529549 385.982910,81.625069 385.616302,85.466637 
	C385.421051,87.512733 384.104034,90.193237 386.782440,91.218834 
	C389.242401,92.160797 389.084930,88.973885 390.347870,87.894821 
	C391.097839,87.254044 392.337921,87.003357 392.797333,86.240028 
	C394.254272,83.819138 397.827637,81.414536 393.223358,78.528610 
	C391.531158,77.467979 391.954529,75.685028 392.285004,73.988739 
	C393.555939,67.465767 394.845520,60.943542 395.919159,54.386818 
	C396.230042,52.488335 398.029022,49.647049 394.957672,48.780842 
	C391.806610,47.892159 388.170471,46.141239 385.219025,49.625275 
	C379.843933,55.970310 374.410370,62.266644 369.101044,68.666107 
	C367.189850,70.969635 366.523987,73.664520 368.364288,77.122345 
z"/>
<path fill="#000000" opacity="1.000000" stroke="none" 
	d="
M173.903610,163.173340 
	C176.845184,164.446640 180.569458,161.087234 182.328339,164.964233 
	C183.963470,168.568481 180.342484,170.548187 178.945663,173.199875 
	C178.482422,174.079269 177.909515,174.915024 177.292786,175.696594 
	C175.898590,177.463425 174.977936,180.093033 172.062622,179.590820 
	C169.458893,179.142258 168.942169,176.918289 168.651749,174.670532 
	C168.462952,173.209167 167.361954,172.390762 166.288849,171.593842 
	C160.676010,167.425476 155.054443,163.268860 149.434708,159.109772 
	C147.654861,157.792511 145.734741,157.132935 143.445984,156.990875 
	C139.005646,156.715332 137.662750,154.440796 139.908447,150.751312 
	C143.638321,144.623413 148.018097,138.881210 153.333771,134.076767 
	C160.069290,127.989021 170.658585,131.746780 172.651535,141.043991 
	C173.457474,144.803696 174.934601,145.873993 178.492783,146.021805 
	C182.619705,146.193222 186.647552,147.136459 190.890182,146.492310 
	C194.664124,145.919342 196.785263,149.838135 194.716217,153.317856 
	C192.495758,157.052261 189.060989,159.009933 184.654343,158.415176 
	C181.871658,158.039597 179.185364,156.991486 176.410248,156.505402 
	C174.028793,156.088303 170.903122,155.032867 169.750809,157.962219 
	C168.656708,160.743561 171.842773,161.626419 173.903610,163.173340 
M164.022842,148.427933 
	C164.020264,145.200287 162.783661,142.709717 159.259995,142.813293 
	C156.933563,142.881683 154.124329,144.283279 154.424103,146.828613 
	C154.905258,150.913757 158.637466,152.143463 161.855682,153.314224 
	C163.561707,152.165970 163.722076,150.663620 164.022842,148.427933 
z"/>
<path fill="#000000" opacity="1.000000" stroke="none" 
	d="
M152.316742,337.309937 
	C152.586456,336.844574 152.669601,336.700134 152.763412,336.562958 
	C153.905441,334.892731 155.548691,334.346375 156.986328,335.743256 
	C159.882355,338.557129 161.970520,342.012695 162.457764,346.072876 
	C162.686981,347.982849 160.962662,349.012451 159.180527,349.173737 
	C153.979553,349.644501 151.526962,353.812347 148.475418,357.489899 
	C152.696777,356.140503 156.958099,354.902405 161.126434,353.405396 
	C164.280991,352.272522 166.701889,352.912415 168.399139,355.764038 
	C170.005219,358.462494 169.299744,360.864655 167.102097,362.928101 
	C164.359177,365.503540 161.605133,368.067139 159.121368,371.007080 
	C162.890747,370.909546 166.331207,370.334045 168.772293,367.230316 
	C171.289200,364.030212 173.508636,364.823334 175.451569,367.826263 
	C176.443634,369.359528 177.428391,370.921112 178.192108,372.573578 
	C179.730011,375.901184 178.165909,378.100739 174.921066,378.100616 
	C165.746643,378.100220 157.408691,381.793457 148.647781,383.564178 
	C144.919266,384.317749 141.828079,384.817108 139.723373,380.750916 
	C137.710754,376.862671 139.820389,374.471771 142.428360,372.153320 
	C144.624420,370.201111 146.841476,368.272491 148.584167,365.370514 
	C145.664841,366.168091 142.718353,366.879395 139.833572,367.786804 
	C136.756897,368.754578 134.055099,369.136841 132.070190,365.720398 
	C130.042709,362.230743 130.736496,359.487274 133.591629,356.876068 
	C138.497925,352.388947 143.282928,347.769348 148.175629,343.267090 
	C149.922607,341.659485 151.421021,339.938568 152.316742,337.309937 
z"/>
<path fill="#000000" opacity="1.000000" stroke="none" 
	d="
M480.041077,100.837509 
	C493.438629,109.673164 492.002930,119.933197 481.881958,132.234177 
	C471.500153,144.852142 454.932800,143.934464 446.425140,130.760620 
	C443.515717,126.255478 442.884125,121.493279 445.009949,116.519493 
	C448.955841,107.287346 455.912323,101.208397 465.195679,97.720345 
	C470.587219,95.694565 475.285248,97.681816 480.041077,100.837509 
M462.643433,111.114342 
	C459.622986,113.842697 457.780792,117.410400 455.638062,120.782455 
	C453.350616,124.382210 454.033447,127.432449 456.997345,130.129181 
	C460.104462,132.956238 463.583649,133.514648 466.890442,130.663467 
	C469.774597,128.176727 472.579742,125.505730 474.958649,122.545540 
	C479.403931,117.014076 480.005981,111.541473 476.959686,108.522736 
	C473.580139,105.173759 469.437927,105.803909 462.643433,111.114342 
z"/>
<path fill="#000000" opacity="1.000000" stroke="none" 
	d="
M489.232208,163.867065 
	C491.619446,170.222458 494.717560,171.404419 499.909180,167.960602 
	C504.903442,164.647705 509.706482,161.046356 514.590881,157.568008 
	C516.263855,156.376602 517.249573,154.906418 517.824036,152.783707 
	C518.933350,148.684998 521.919067,148.227020 524.705688,151.588913 
	C526.507996,153.763351 528.152649,156.096039 529.634644,158.501526 
	C531.540344,161.594559 529.914185,164.623978 526.447815,163.927780 
	C523.464233,163.328537 521.715698,164.661041 519.684875,166.050400 
	C514.186584,169.811981 508.851959,173.851364 502.857330,176.811615 
	C492.279297,182.035248 480.125397,175.887161 478.056915,164.240631 
	C477.140961,159.083588 478.934357,154.771896 482.861389,151.274567 
	C488.234619,146.489288 494.375336,142.764603 500.165558,138.556137 
	C502.173157,137.096970 504.002197,135.756973 504.764740,132.979462 
	C505.621796,129.857666 508.186493,129.330276 510.486694,131.749695 
	C512.539307,133.908722 514.338135,136.365158 515.933289,138.889801 
	C518.380554,142.763229 516.936829,145.192337 512.327515,145.330917 
	C505.285339,145.542633 490.774353,156.934402 489.232208,163.867065 
z"/>
<path fill="#000000" opacity="1.000000" stroke="none" 
	d="
M306.830872,82.280045 
	C309.418030,89.562271 307.859344,92.728989 300.966339,94.369736 
	C294.165131,95.988632 287.319977,97.437050 280.461639,98.796333 
	C276.554596,99.570709 273.486603,96.730858 275.200562,93.565201 
	C277.505219,89.308487 276.171722,85.462479 275.472351,81.464981 
	C274.784637,77.533951 273.768921,73.658180 272.835876,69.772881 
	C272.128723,66.828239 270.852386,64.312149 268.599457,62.053955 
	C265.499115,58.946396 266.396912,55.697235 270.645813,54.641575 
	C278.713593,52.637115 286.878815,51.019794 295.018860,49.314621 
	C297.489899,48.796986 299.301666,49.890007 300.116547,52.253990 
	C301.083923,55.060501 302.442444,58.020321 299.812408,60.649418 
	C297.958893,62.502285 295.924713,62.019753 293.919922,60.670063 
	C291.671082,59.156105 289.268616,59.155605 286.749878,60.035957 
	C283.914062,61.027153 282.793762,62.921310 283.409607,65.831161 
	C284.072693,68.964409 286.287567,69.202538 288.788910,68.478531 
	C291.891998,67.580353 294.561493,67.690475 295.539948,71.346405 
	C296.498260,74.926979 293.838501,76.212990 291.178894,76.797775 
	C286.115173,77.911148 286.348541,81.458839 287.547333,84.881882 
	C289.028168,89.110199 292.399628,87.946960 295.480469,86.716255 
	C297.087097,86.074425 298.152771,84.847260 299.179565,83.483032 
	C301.145935,80.870438 303.612122,80.084068 306.830872,82.280045 
z"/>
<path fill="#000000" opacity="1.000000" stroke="none" 
	d="
M211.974457,106.963326 
	C214.934036,108.867821 217.568802,110.611328 220.267319,112.249817 
	C222.521042,113.618225 224.691467,115.172516 227.669128,114.392075 
	C229.486069,113.915855 230.879913,114.973259 231.734924,116.582291 
	C232.683441,118.367325 231.910675,119.840630 230.605881,121.024269 
	C228.022629,123.367645 225.477478,125.781044 222.693436,127.867798 
	C219.410645,130.328384 217.389359,128.480118 216.401428,125.281731 
	C215.666885,122.903770 214.802505,120.453491 212.063843,120.616386 
	C209.101639,120.792580 206.804947,123.073517 205.681442,125.614464 
	C204.533218,128.211334 206.270721,130.294006 208.597946,131.751587 
	C211.876343,133.804916 211.707947,136.240677 209.016510,138.605942 
	C206.899414,140.466492 204.677155,142.242157 202.330978,143.798264 
	C199.522522,145.660980 196.932281,144.620483 196.960724,141.469437 
	C197.054794,131.047165 191.229446,122.522026 188.509766,113.025261 
	C187.733551,110.314835 186.574097,107.715950 185.746155,105.018112 
	C184.813629,101.979378 185.783356,99.407440 188.233063,97.484619 
	C190.672241,95.570076 193.369644,95.137680 196.111465,96.857063 
	C201.320862,100.123817 206.490875,103.453377 211.974457,106.963326 
M199.393951,114.489082 
	C199.939255,115.471573 200.334122,116.679230 201.794891,116.520706 
	C202.674408,116.425270 203.455917,115.873260 203.319672,114.959442 
	C203.037277,113.065376 201.327759,112.245369 199.851471,111.988747 
	C198.111008,111.686203 199.078964,113.132591 199.393951,114.489082 
z"/>
<path fill="#000000" opacity="1.000000" stroke="none" 
	d="
M252.165802,79.057892 
	C253.370285,87.053619 254.373184,94.643806 255.744797,102.166771 
	C256.515594,106.394440 255.268814,109.217148 251.538910,111.274315 
	C247.727280,113.376556 245.297104,111.376419 242.829926,108.865501 
	C236.295944,102.215698 229.693253,95.633377 223.162170,88.980751 
	C221.368591,87.153793 219.297546,86.006577 216.890900,85.094162 
	C213.032211,83.631279 212.725632,80.335510 216.070831,77.947105 
	C217.413895,76.988174 218.967819,76.313690 220.456589,75.571571 
	C227.624893,71.998322 227.141098,72.280289 230.657639,79.176010 
	C233.661087,85.065552 238.980743,89.398712 244.279922,93.887733 
	C242.935074,86.814095 245.289780,78.887566 238.662811,73.185944 
	C238.537338,73.077988 238.383209,73.000198 238.269455,72.882278 
	C236.848145,71.408936 236.348907,69.792168 237.545380,67.938789 
	C239.128357,65.486610 248.518616,61.678642 250.470734,62.789471 
	C252.695175,64.055260 253.301071,66.058502 252.250793,68.342064 
	C250.666641,71.786400 251.430756,75.189430 252.165802,79.057892 
z"/>
<path fill="#000000" opacity="1.000000" stroke="none" 
	d="
M226.569336,439.818909 
	C229.309433,436.385895 231.939957,433.245911 231.833374,428.638550 
	C231.763260,425.608185 233.815506,424.415192 236.581680,425.724640 
	C238.658920,426.707916 240.661987,428.032440 242.368103,429.570923 
	C244.775864,431.742188 244.763474,434.126648 241.404205,435.232391 
	C239.061539,436.003571 237.979218,437.597046 236.813278,439.463654 
	C233.373444,444.970703 229.854462,450.429504 226.289764,455.856812 
	C224.836548,458.069366 223.415741,460.648651 220.007507,459.366547 
	C216.589890,458.080872 215.093216,455.389862 215.372498,451.897491 
	C215.806519,446.469543 215.971710,441.065674 215.483200,434.507629 
	C212.799820,438.795105 209.561279,441.305084 209.817398,446.097687 
	C209.978561,449.113220 207.769501,450.561310 204.651245,449.114868 
	C203.296692,448.486511 202.016129,447.685547 200.744705,446.894257 
	C198.927307,445.763123 196.704666,444.826996 197.010925,442.126190 
	C197.290649,439.659485 199.405350,439.202911 201.336014,438.611633 
	C203.018326,438.096405 204.274307,436.973175 205.038437,435.442383 
	C208.122513,429.264099 213.552704,424.345032 214.416138,416.925934 
	C214.761658,413.957092 217.391953,413.628510 219.894180,414.823944 
	C224.114014,416.839935 225.908997,420.509888 226.039108,424.939453 
	C226.136459,428.253876 225.643005,431.581543 225.587784,434.906219 
	C225.559875,436.586304 224.366745,438.501953 226.569336,439.818909 
z"/>
<path fill="#000000" opacity="1.000000" stroke="none" 
	d="
M442.891052,75.014420 
	C444.708496,76.276268 446.117554,77.429459 447.083435,79.043030 
	C448.635468,81.635895 447.979156,83.849754 445.841614,85.704277 
	C443.739685,87.527931 441.955780,86.648933 440.147766,85.001236 
	C437.817108,82.877205 435.415009,80.806786 432.870667,78.950439 
	C431.095673,77.655411 429.099243,77.696320 427.437805,79.410011 
	C425.881927,81.014839 426.334320,82.731934 427.220917,84.471336 
	C428.152130,86.298332 429.589722,87.675766 431.140167,88.947342 
	C433.768219,91.102699 435.760101,93.765862 437.122742,96.839096 
	C440.524902,104.512085 434.746002,113.877731 426.348450,114.251221 
	C418.361908,114.606422 411.777283,111.444580 406.322052,105.761642 
	C404.291565,103.646423 403.136780,101.411583 405.809845,98.876602 
	C408.431976,96.389938 410.420471,97.288940 412.481018,99.750359 
	C414.404266,102.047768 416.620148,104.187164 419.482422,105.259666 
	C421.811310,106.132301 424.560303,106.968246 426.276886,104.348137 
	C427.836060,101.968315 426.901917,99.448090 425.175446,97.449669 
	C423.770050,95.822922 422.033051,94.484421 420.459106,93.001122 
	C415.036987,87.891289 413.786407,81.776794 416.959686,75.945114 
	C419.938660,70.470428 424.970215,68.761253 432.525543,70.503967 
	C436.154419,71.340996 439.392548,72.995750 442.891052,75.014420 
z"/>
<path fill="#000000" opacity="1.000000" stroke="none" 
	d="
M483.864807,271.786438 
	C485.551025,273.614899 487.296448,275.393127 488.904266,277.288116 
	C490.139343,278.743744 491.883331,280.158936 490.417236,282.435608 
	C487.882294,283.377594 487.144714,280.408997 484.599548,280.091797 
	C487.778961,284.665253 490.834442,288.920471 492.246216,293.994537 
	C492.719177,295.694427 493.822937,297.795044 491.841370,299.010529 
	C489.745483,300.296112 488.570770,298.103638 487.348938,296.900970 
	C479.152405,288.832947 471.673798,280.186920 465.506134,270.416809 
	C457.870728,258.321777 450.111664,246.312515 444.861084,232.911697 
	C444.437531,231.830643 443.925781,230.780396 443.568573,229.679001 
	C443.432373,229.259033 443.615631,228.735443 443.655182,228.235336 
	C446.075989,226.789810 447.190216,229.471954 449.039764,229.824020 
	C450.282928,229.049759 448.898102,227.102173 451.404053,226.145737 
	C457.195435,230.686188 460.152557,237.950134 465.580292,243.571274 
	C461.862793,245.941528 460.339417,242.861847 456.852783,241.934662 
	C465.248474,252.758301 469.945648,265.240295 483.044006,271.155457 
	C483.622253,271.502869 483.746918,271.641602 483.864807,271.786438 
z"/>
<path fill="#000000" opacity="1.000000" stroke="none" 
	d="
M271.360443,441.525635 
	C281.878784,446.451477 284.651276,453.713043 280.509705,464.701782 
	C276.696686,474.818756 268.283447,479.120758 258.296417,476.073608 
	C254.793365,475.004822 251.229095,474.111298 247.786484,472.876434 
	C243.913315,471.487122 243.314453,469.055786 245.879410,466.074524 
	C251.980194,458.983612 254.723022,450.789185 254.288132,441.433044 
	C254.115906,437.727844 256.206421,436.168518 259.753418,437.290131 
	C263.556610,438.492676 267.260498,440.009247 271.360443,441.525635 
M259.060089,465.118896 
	C258.061737,467.850586 259.413940,468.715027 261.909302,468.874237 
	C266.898315,469.192505 271.083160,464.207245 271.665833,457.151154 
	C272.116150,451.698456 270.797638,449.984009 264.788116,448.598999 
	C262.309601,453.592560 261.100708,459.116486 259.060089,465.118896 
z"/>
<path fill="#000000" opacity="1.000000" stroke="none" 
	d="
M359.168701,480.737366 
	C357.455048,478.035797 357.282349,474.468719 353.208496,473.939819 
	C351.614716,476.746826 351.899292,478.962738 354.377991,481.293243 
	C357.712036,484.427887 356.971649,486.626129 352.479034,487.730164 
	C351.355896,488.006195 350.179749,488.091553 349.021790,488.196655 
	C340.699005,488.952271 341.800293,489.003510 342.211090,481.035065 
	C342.609070,473.314636 342.709320,465.024597 338.465485,457.838837 
	C336.560883,454.613892 337.431854,452.787415 340.750671,451.898956 
	C346.101440,450.466431 351.667847,450.243317 357.100800,450.449066 
	C364.294922,450.721619 369.481842,458.562805 365.888763,464.329437 
	C362.911743,469.107361 364.682617,471.859772 367.245117,475.200775 
	C367.952759,476.123413 368.634247,477.083893 369.455597,477.898041 
	C371.503540,479.928192 375.089478,481.757843 371.605957,485.045898 
	C368.616730,487.867432 365.096222,487.097382 362.113983,484.564453 
	C361.001099,483.619263 360.256042,482.241028 359.168701,480.737366 
M350.734741,461.957611 
	C351.239349,463.399353 350.591431,465.337708 352.579437,466.222260 
	C354.875916,465.438354 356.915863,464.317963 356.605804,461.476654 
	C356.381592,459.421967 354.834137,458.398560 352.815125,458.313049 
	C350.755157,458.225861 350.375153,459.535583 350.734741,461.957611 
z"/>
<path fill="#000000" opacity="1.000000" stroke="none" 
	d="
M424.034607,220.880096 
	C420.942657,210.602112 414.712646,202.500015 409.263916,193.954544 
	C407.741302,191.566483 405.550598,189.284653 406.153137,186.191589 
	C407.607452,185.367599 408.507935,185.899872 409.183502,186.633850 
	C414.684845,192.610779 421.240814,197.797897 424.744415,205.339096 
	C431.605408,220.106552 440.302032,233.991333 445.563721,249.539627 
	C448.130493,257.124390 454.299072,262.390808 459.248535,268.415100 
	C461.627655,271.310852 464.647827,273.776154 466.001099,277.442352 
	C464.166840,279.623474 462.623688,278.238586 461.055511,277.429565 
	C454.476318,274.035278 448.972443,269.211426 443.564880,264.263336 
	C441.949097,262.784882 440.639374,261.044403 439.856354,258.996857 
	C434.986420,246.262451 427.944519,234.430679 424.034607,220.880096 
z"/>
<path fill="#000000" opacity="1.000000" stroke="none" 
	d="
M142.515778,202.542847 
	C138.347137,200.750809 134.557129,199.012558 130.658707,197.566559 
	C126.375999,195.978027 125.019554,196.935318 125.313782,201.360550 
	C125.484818,203.933090 126.075287,206.620071 123.092484,207.791718 
	C120.298714,208.889130 117.836060,207.331772 115.774300,205.639465 
	C113.254433,203.571091 114.606056,201.065414 115.619293,198.798401 
	C119.355835,190.438248 123.147209,182.102493 126.946342,173.770508 
	C127.950653,171.567932 129.207474,169.512741 132.114624,169.987183 
	C134.496552,170.375931 136.679855,171.371262 137.622162,173.779510 
	C138.737808,176.630753 136.491394,177.898224 134.720291,179.445511 
	C129.904266,183.652863 130.226791,185.822922 135.906784,188.240021 
	C140.657608,190.261688 145.400345,192.303802 150.177277,194.262161 
	C153.317307,195.549454 156.182037,197.382355 159.834732,194.528320 
	C162.217606,192.666458 165.149323,195.433823 164.097305,198.715820 
	C162.731842,202.975647 160.922119,207.134354 158.886993,211.124039 
	C157.474945,213.892242 154.131348,213.922928 153.524765,211.307755 
	C152.113037,205.221466 146.711441,205.142090 142.515778,202.542847 
z"/>
<path fill="#000000" opacity="1.000000" stroke="none" 
	d="
M430.919067,344.903168 
	C443.281189,346.313660 455.154053,347.866699 466.813416,350.732452 
	C468.743164,351.206757 471.228302,351.324432 470.917694,354.054443 
	C470.615570,356.709747 468.455261,358.112762 465.909943,357.947296 
	C463.281647,357.776428 460.702576,356.925873 458.088531,356.446106 
	C439.077911,352.956818 419.886200,351.152435 400.591858,350.327545 
	C398.269928,350.228241 396.073975,350.104462 394.501404,352.607361 
	C393.472931,354.244263 391.264679,354.079376 389.429169,354.101562 
	C385.433441,354.149841 381.436951,354.192108 377.441284,354.162201 
	C374.794403,354.142395 372.195679,354.262695 370.455109,351.420746 
	C369.035706,349.103210 365.495392,351.560669 363.105530,348.080750 
	C385.817413,343.512512 408.066406,343.065796 430.919067,344.903168 
z"/>
<path fill="#000000" opacity="1.000000" stroke="none" 
	d="
M461.786560,444.376892 
	C456.402679,443.180359 454.095337,438.870575 450.896942,435.543915 
	C447.173950,431.671631 445.050934,426.161896 439.275940,424.315765 
	C437.709076,423.814850 437.357025,422.122101 437.824036,420.487671 
	C438.408081,418.443604 445.128021,413.014648 446.915680,413.215820 
	C448.846161,413.433075 449.763275,414.687103 450.054657,416.544617 
	C451.194885,423.814392 457.147339,427.900513 461.297516,433.128143 
	C462.960815,435.223236 465.756226,435.322571 468.049316,433.385651 
	C470.435272,431.370270 470.314819,428.896515 468.507629,426.744293 
	C464.219910,421.637939 461.512970,414.892883 454.333649,412.688782 
	C454.029327,412.595367 453.746216,412.365479 453.505951,412.142365 
	C452.281982,411.005737 451.607544,409.542999 452.728729,408.163147 
	C455.131256,405.206390 457.652069,402.014587 461.617096,401.419647 
	C463.632019,401.117340 464.635040,403.252533 464.397888,405.342865 
	C464.091492,408.043335 465.956268,409.637970 467.379883,411.412567 
	C470.397675,415.174286 473.741119,418.659149 476.130737,422.925781 
	C478.899811,427.869904 479.277008,432.772095 476.114258,437.548889 
	C472.855103,442.471283 468.289551,445.129883 461.786560,444.376892 
z"/>
<path fill="#000000" opacity="1.000000" stroke="none" 
	d="
M302.133606,448.904449 
	C308.342468,449.628418 314.126312,450.232178 319.877472,451.062225 
	C324.470337,451.725098 326.303833,454.759186 324.676849,458.892334 
	C323.328613,462.317261 320.925568,463.038666 318.043915,460.671539 
	C316.310272,459.247375 314.583069,458.138794 312.278442,458.110809 
	C310.311371,458.086884 309.157745,459.028381 308.746887,460.915863 
	C308.311737,462.914825 309.519958,463.593536 311.179657,463.891724 
	C313.748566,464.353302 316.412781,465.067902 316.334839,468.245605 
	C316.244446,471.931366 313.082733,471.965607 310.452454,472.123840 
	C307.396301,472.307739 307.123596,474.294006 307.114899,476.616211 
	C307.104675,479.342133 308.868317,479.864441 311.093323,479.915710 
	C312.836273,479.955872 314.308197,479.304535 315.765198,478.434479 
	C317.759430,477.243744 319.958710,476.683105 321.642548,478.721863 
	C323.528900,481.005798 322.752777,483.460754 321.150055,485.588715 
	C319.217590,488.154419 316.368774,488.424805 313.472473,488.111877 
	C308.191986,487.541290 302.914001,486.923889 297.655670,486.179596 
	C293.473022,485.587616 292.851807,483.294983 294.906799,479.477173 
	C298.969025,471.930145 299.629425,463.713928 297.762756,455.496338 
	C296.661224,450.647186 296.744202,449.775970 302.133606,448.904449 
z"/>
<path fill="#000000" opacity="1.000000" stroke="none" 
	d="
M186.771362,418.876007 
	C185.433609,421.120148 184.846451,423.174255 184.958328,425.403229 
	C185.060486,427.437836 184.346390,429.093506 182.401550,429.813080 
	C180.512955,430.511841 179.313431,429.008698 178.082169,427.937592 
	C176.953674,426.955902 175.917465,425.867157 174.852371,424.813660 
	C171.016052,421.019135 171.047775,419.779510 175.528641,416.962463 
	C177.873047,415.488556 178.511063,413.918213 176.766663,411.702240 
	C175.003433,409.462311 172.926559,408.410919 170.423904,410.656311 
	C168.811386,412.103058 167.897003,415.182007 164.908844,413.455261 
	C162.005356,411.777405 159.516190,409.442413 158.263229,406.253021 
	C157.405502,404.069733 158.925064,402.462677 160.865036,402.251343 
	C170.265457,401.227142 177.797562,395.584747 186.244522,392.232300 
	C189.431122,390.967590 192.442871,389.329163 195.451874,392.255951 
	C198.738327,395.452667 197.604111,398.886719 195.750275,402.300720 
	C192.813904,407.708313 189.891403,413.123444 186.771362,418.876007 
z"/>
<path fill="#000000" opacity="1.000000" stroke="none" 
	d="
M508.758972,219.305389 
	C504.860413,212.084793 501.925842,204.848679 499.254669,197.501572 
	C498.671173,195.896637 498.386566,194.223633 499.645630,192.780228 
	C500.951202,191.283417 502.523560,191.398621 504.181610,192.195190 
	C504.772491,192.479034 505.535217,192.930649 506.050446,192.768509 
	C515.479065,189.801453 525.565735,187.947189 532.821899,180.593140 
	C536.855713,176.504868 538.985046,176.312424 541.411804,181.697678 
	C542.571411,184.270981 543.639771,186.912613 544.436768,189.615494 
	C545.538940,193.352951 543.297607,195.691345 539.679504,194.278580 
	C537.032532,193.245010 534.875793,193.635757 532.515137,194.587234 
	C526.499817,197.011841 520.445312,199.342468 514.469299,201.859634 
	C512.886841,202.526199 510.453735,203.067795 510.808685,205.339172 
	C511.177765,207.700989 511.693207,210.523743 514.391785,211.502106 
	C517.473755,212.619507 520.765076,214.079071 518.478149,217.654648 
	C516.516052,220.722412 512.878052,222.446838 508.758972,219.305389 
z"/>
<path fill="#000000" opacity="1.000000" stroke="none" 
	d="
M329.525940,46.937096 
	C334.319763,47.796082 335.367798,50.077259 332.584259,53.583145 
	C330.545563,56.150921 330.365845,59.067596 330.339172,62.062035 
	C330.288788,67.717941 330.273865,73.375618 330.367920,79.030502 
	C330.396454,80.746353 329.754272,83.097839 332.117371,83.716766 
	C334.603851,84.368019 337.408234,85.401947 339.613159,82.989708 
	C341.347412,81.092384 342.982300,78.924210 345.869568,80.575493 
	C348.283447,81.956024 348.104309,84.465462 347.794556,86.822205 
	C347.388794,89.909706 345.478149,91.685249 342.460724,91.776360 
	C334.981232,92.002182 327.489441,92.220619 320.014069,92.017998 
	C316.150085,91.913261 314.961975,88.761505 317.650208,85.773766 
	C319.414490,83.812912 319.832764,81.827324 319.805847,79.438423 
	C319.742096,73.782394 319.819946,68.123955 319.693695,62.469780 
	C319.626984,59.482975 319.152832,56.640480 317.363708,53.968914 
	C314.783722,50.116280 316.341003,47.332485 321.103027,46.948406 
	C323.747620,46.735111 326.423462,46.909161 329.525940,46.937096 
z"/>
<path fill="#000000" opacity="1.000000" stroke="none" 
	d="
M499.140564,412.476318 
	C496.064270,413.761780 494.163544,412.603973 493.159271,410.159485 
	C492.040070,407.435303 494.126007,406.412567 496.103394,405.265228 
	C497.662109,404.360809 499.192108,403.207489 500.330719,401.830566 
	C501.661957,400.220703 503.404694,398.105774 501.531738,396.086853 
	C499.795624,394.215424 497.530487,395.241638 495.596741,396.433411 
	C493.477600,397.739441 491.399658,399.120667 489.223724,400.324463 
	C484.842438,402.748291 480.777832,401.755524 477.233246,398.646301 
	C473.912476,395.733398 473.021088,391.987488 474.430908,387.745178 
	C476.055725,382.856049 478.986053,378.894958 482.989502,375.706177 
	C485.436157,373.757385 487.818756,373.489441 489.904663,376.230103 
	C492.089508,379.100800 490.333496,380.766571 488.004883,382.253540 
	C486.171967,383.424011 484.443909,384.725372 483.155762,386.519989 
	C482.208221,387.840088 481.745361,389.290070 482.879089,390.645416 
	C484.061035,392.058319 485.570435,391.707672 486.947296,390.855682 
	C488.646729,389.804108 490.276733,388.640625 491.973419,387.584473 
	C497.384644,384.216125 502.212219,384.237396 506.335114,387.610291 
	C510.396179,390.932587 511.366486,395.845490 509.001526,401.722656 
	C507.124237,406.387848 503.737671,409.750031 499.140564,412.476318 
z"/>
<path fill="#000000" opacity="1.000000" stroke="none" 
	d="
M504.165955,339.262817 
	C505.692352,336.395355 507.314697,334.465912 510.637085,335.789246 
	C514.473572,337.317261 515.064148,340.467773 512.027039,343.483856 
	C507.731018,347.750183 507.855286,348.424347 513.238037,351.020416 
	C516.380005,352.535736 519.466492,354.165588 522.599182,355.700684 
	C525.104858,356.928528 527.341064,358.145416 530.530273,356.709778 
	C533.377808,355.427917 535.171143,357.669006 534.203613,360.474945 
	C533.024902,363.893097 531.236572,367.154724 529.333923,370.251801 
	C527.920837,372.552094 525.149902,372.941559 524.313293,370.256622 
	C523.117004,366.417511 520.094727,365.370972 517.264893,363.815308 
	C514.062439,362.054779 510.758545,360.479462 507.511200,358.799591 
	C504.497894,357.240845 502.657257,357.796387 502.732147,361.518829 
	C502.776062,363.700348 502.319946,365.630829 500.078156,366.338196 
	C497.519806,367.145477 495.575287,365.541016 493.877869,363.967834 
	C492.032227,362.257324 492.963928,360.321381 493.931946,358.501526 
	C497.285431,352.197266 500.637390,345.892212 504.165955,339.262817 
z"/>
<path fill="#000000" opacity="1.000000" stroke="none" 
	d="
M289.836945,275.079834 
	C299.608063,282.254913 307.345978,290.862396 314.796753,300.214966 
	C311.697601,301.810822 310.155853,300.182648 308.638031,299.104340 
	C303.763733,295.641388 298.875916,292.179413 294.209015,288.447388 
	C289.123962,284.380951 283.848602,280.841797 277.798279,278.223541 
	C270.581482,275.100494 265.773193,268.872131 261.256409,262.723083 
	C258.758759,259.322845 260.195068,255.040787 260.285126,250.922409 
	C263.408936,250.550385 264.358063,253.050232 265.792267,254.614380 
	C272.881622,262.346100 280.069122,269.941956 289.836945,275.079834 
z"/>
<path fill="#000000" opacity="1.000000" stroke="none" 
	d="
M424.686035,449.329895 
	C425.762451,451.437012 426.638092,453.228302 427.574707,454.987122 
	C428.274780,456.301727 428.928009,457.827515 430.809418,457.579010 
	C432.526611,457.352203 434.062592,456.589569 434.638062,454.823914 
	C435.397278,452.494446 436.270050,450.150116 439.210022,450.500214 
	C441.703888,450.797241 442.494019,453.150177 443.085846,455.211426 
	C443.932739,458.161011 442.204376,459.893188 439.779175,461.131744 
	C434.905945,463.620544 430.096130,466.245636 425.138458,468.552979 
	C421.561249,470.217834 420.039429,468.822784 419.778900,464.997925 
	C419.170532,456.067352 414.747681,448.754120 408.690430,442.579010 
	C405.425873,439.250946 405.025330,437.464264 408.973541,435.006927 
	C410.097778,434.307220 411.322632,433.767151 412.510437,433.171997 
	C418.840332,430.000580 419.830078,430.632965 419.855652,437.591614 
	C419.871826,441.982819 423.074890,445.147278 424.686035,449.329895 
z"/>
<path fill="#000000" opacity="1.000000" stroke="none" 
	d="
M269.936920,369.008484 
	C273.582855,368.927887 275.620728,369.810486 273.771240,373.501312 
	C279.996002,375.208801 286.955322,371.837128 293.487946,376.648193 
	C289.595184,378.943787 286.198029,378.598999 283.055542,378.953644 
	C277.455231,379.585663 271.765472,379.449432 266.175079,380.137665 
	C260.886749,380.788696 256.392395,380.195740 253.131042,374.604523 
	C257.918915,370.921082 263.959412,370.570526 269.936920,369.008484 
z"/>
<path fill="#000000" opacity="1.000000" stroke="none" 
	d="
M403.497620,207.143768 
	C402.441925,202.194321 402.441925,202.194321 403.724091,198.712311 
	C409.013794,201.102493 421.484711,230.850861 419.043335,237.060013 
	C412.956940,227.255600 406.640869,218.307053 403.497620,207.143768 
z"/>
<path fill="#000000" opacity="1.000000" stroke="none" 
	d="
M326.254883,319.512939 
	C324.604553,322.028992 324.056030,322.326416 321.171051,320.178528 
	C314.640320,315.316498 308.274597,310.226898 301.953125,305.092773 
	C299.471954,303.077667 296.252014,301.677338 295.634552,297.625854 
	C306.449768,303.909058 317.012268,310.498138 326.254883,319.512939 
z"/>
<path fill="#000000" opacity="1.000000" stroke="none" 
	d="
M275.721283,261.253174 
	C270.603912,255.498291 265.713104,250.017441 260.822266,244.536606 
	C261.300262,244.108368 261.778229,243.680130 262.256226,243.251892 
	C271.408844,249.167725 278.146759,257.313721 283.647705,268.307953 
	C279.783539,266.301605 277.959656,263.803558 275.721283,261.253174 
z"/>
<path fill="#000000" opacity="1.000000" stroke="none" 
	d="
M484.195648,271.938629 
	C483.746918,271.641602 483.622253,271.502869 483.393677,271.275391 
	C480.057526,267.768768 476.818512,264.356964 473.579529,260.945129 
	C474.032867,260.448059 474.486176,259.950989 474.939514,259.453918 
	C481.546814,264.146729 487.843658,269.213898 493.846954,275.992340 
	C488.738983,277.306793 487.481262,272.921875 484.195648,271.938629 
z"/>
<path fill="#000000" opacity="1.000000" stroke="none" 
	d="
M230.983063,388.020752 
	C226.106155,388.290161 223.667938,385.425781 221.730194,381.416290 
	C226.967514,379.826813 231.454559,382.838715 231.174652,387.661163 
	C231.040939,387.972626 231.001511,388.003723 230.983063,388.020752 
z"/>
<path fill="#000000" opacity="1.000000" stroke="none" 
	d="
M342.023834,167.201202 
	C344.709503,172.195862 350.788635,173.920029 352.660675,179.336655 
	C353.842987,182.757660 349.323303,194.044220 345.996887,195.319901 
	C342.537567,196.646545 337.629913,192.998978 338.044769,189.267746 
	C335.610992,189.130081 332.108185,195.690628 330.907593,188.187653 
	C328.157990,189.422104 326.665436,192.597107 323.412506,192.766205 
	C321.999420,191.157684 323.272766,190.167969 324.115082,189.288162 
	C330.240540,182.890137 335.921356,176.169205 340.084442,168.276993 
	C340.351990,167.769791 341.123047,167.528198 342.023834,167.201202 
z"/>
<path fill="#000000" opacity="1.000000" stroke="none" 
	d="
M351.647583,158.382782 
	C353.686035,162.611450 358.115509,165.282959 358.286163,171.635193 
	C352.193512,167.512299 349.873352,162.258408 346.831421,157.575607 
	C349.229340,155.368774 350.243958,157.071411 351.647583,158.382782 
z"/>
<path fill="#000000" opacity="1.000000" stroke="none" 
	d="
M313.262878,215.336838 
	C315.769379,212.983185 317.776459,210.495972 321.060394,209.716339 
	C321.526489,212.755066 315.800049,219.392853 313.386261,218.709183 
	C311.322601,218.124695 312.312531,216.746292 313.262878,215.336838 
z"/>
<path fill="#000000" opacity="1.000000" stroke="none" 
	d="
M382.854156,60.811539 
	C385.047241,59.159576 386.916046,56.321529 389.394196,57.631741 
	C392.485962,59.266361 390.392090,62.465080 389.933594,64.855156 
	C389.212524,68.613892 388.664032,72.094772 384.690887,74.883453 
	C380.924255,77.527168 377.843353,76.389626 374.510284,75.885330 
	C371.671021,75.455742 372.482605,73.386780 373.761658,71.800957 
	C376.670807,68.194122 379.659882,64.651733 382.854156,60.811539 
z"/>
</svg>